<mxfile host="Electron" agent="Mozilla/5.0 (Windows NT 10.0; Win64; x64) AppleWebKit/537.36 (KHTML, like Gecko) draw.io/28.1.2 Chrome/138.0.7204.243 Electron/37.4.0 Safari/537.36" version="28.1.2">
  <diagram name="Page-1" id="Nc1TWZKisvZOe51aNDrU">
    <mxGraphModel dx="1426" dy="849" grid="1" gridSize="10" guides="1" tooltips="1" connect="1" arrows="1" fold="1" page="1" pageScale="1" pageWidth="850" pageHeight="1100" math="0" shadow="0">
      <root>
        <mxCell id="0" />
        <mxCell id="1" parent="0" />
        <mxCell id="HEqFmrbNHKnQhXZNeD_B-1" value="Thoughts on Camping Trip" style="ellipse;shape=cloud;whiteSpace=wrap;html=1;" vertex="1" parent="1">
          <mxGeometry x="30" y="400" width="120" height="80" as="geometry" />
        </mxCell>
        <mxCell id="HEqFmrbNHKnQhXZNeD_B-2" value="" style="shape=flexArrow;endArrow=classic;html=1;rounded=0;" edge="1" parent="1">
          <mxGeometry width="50" height="50" relative="1" as="geometry">
            <mxPoint x="170" y="439.5" as="sourcePoint" />
            <mxPoint x="260" y="439.5" as="targetPoint" />
          </mxGeometry>
        </mxCell>
        <mxCell id="HEqFmrbNHKnQhXZNeD_B-6" value="" style="shape=flexArrow;endArrow=classic;html=1;rounded=0;" edge="1" parent="1">
          <mxGeometry width="50" height="50" relative="1" as="geometry">
            <mxPoint x="510" y="439.5" as="sourcePoint" />
            <mxPoint x="600" y="439.5" as="targetPoint" />
          </mxGeometry>
        </mxCell>
        <mxCell id="HEqFmrbNHKnQhXZNeD_B-7" value="Packing Pal" style="whiteSpace=wrap;html=1;aspect=fixed;" vertex="1" parent="1">
          <mxGeometry x="300" y="350" width="180" height="180" as="geometry" />
        </mxCell>
        <mxCell id="HEqFmrbNHKnQhXZNeD_B-8" value="List of items to bring for the trip" style="shape=note;whiteSpace=wrap;html=1;backgroundOutline=1;darkOpacity=0.05;size=23;" vertex="1" parent="1">
          <mxGeometry x="620" y="390" width="80" height="100" as="geometry" />
        </mxCell>
      </root>
    </mxGraphModel>
  </diagram>
</mxfile>
